<svg xmlns="http://www.w3.org/2000/svg" width="100" height="100"><g transform="matrix(.76988 0 0 .76988 1106.226 -283.786)"><g transform="translate(-1348.255 94.513)"><rect width="63.214" height="40.714" x="-73.879" y="317.729" fill="#f9f9f9" fill-rule="evenodd" stroke="#000" stroke-linecap="round" stroke-linejoin="round" stroke-width=".8" rx="3.599" ry="3.599"/><g style="line-height:125%;-inkscape-font-specification:'Segoe WP Black, Ultra-Bold'" fill="#4d4d4d" font-family="Sans" font-size="23.079" font-weight="400" letter-spacing="0" word-spacing="0"><path d="M-54.939047 346.53237c-.187832.0676-.430118.14462-.726858.23101-.296767.0864-.640475.16528-1.031125.23666-.390675.0714-.826414.13147-1.307218.1803-.480826.0488-1.002962.0732-1.566408.0732-1.434943 0-2.674545-.21411-3.718811-.64234-1.044276-.42822-1.904485-1.00671-2.580629-1.73544-.676149-.72874-1.177625-1.5758-1.504428-2.54119-.326805-.96538-.490207-1.98899-.490206-3.07084-.000001-1.27716.206599-2.44914.619801-3.51596.4132-1.0668 1.004828-1.98711 1.774887-2.76094.770053-.7738 1.701633-1.37482 2.794742-1.80306 1.093098-.42821 2.319553-.64232 3.679369-.64234.939083.00002 1.748581.0582 2.428496.17467.679891.11647 1.222686.22728 1.628388.33244l0 4.49638c-.165294-.0976-.36626-.1972-.602898-.29863-.236664-.10141-.503367-.19344-.800108-.27609-.296765-.0826-.621691-.15025-.974779-.20285-.35311-.0526-.728747-.0789-1.126912-.0789-.563466.00001-1.104383.0808-1.622754.24229-.518387.16153-.972908.41509-1.363564.76066-.390669.3456-.702448.78509-.935337 1.31849-.232901.53341-.349348 1.16824-.349343 1.90448-.000005.62357.0939 1.19266.281729 1.70727.187812.51463.462027.95413.822645 1.31849.360605.36437.801979.64798 1.324122.85082.522128.20285 1.113756.30427 1.774887.30426.38314.00001.749386-.0282 1.09874-.0845.349331-.0563.674257-.12959.974779-.21975.300497-.0901.57659-.18782.82828-.293.251664-.10517.475168-.20659.670513-.30427zM-37.032412 338.84683c-.000017 1.28468-.210374 2.44352-.631071 3.47652-.42073 1.03301-1.001089 1.91575-1.741079 2.64824-.74002.7325-1.607741 1.29595-2.603168 1.69037-.99545.39442-2.067893.59163-3.217334.59163-1.111894 0-2.158044-.18782-3.138451-.56346-.980418-.37563-1.83687-.91467-2.569359-1.61711-.732496-.70244-1.310977-1.55702-1.735445-2.56373-.424471-1.0067-.636706-2.14113-.636706-3.40327 0-1.26214.202844-2.4191.608533-3.47089.405687-1.05178.972899-1.95518 1.701637-2.71023.728733-.75501 1.602089-1.34101 2.620071-1.75798 1.017971-.41694 2.139248-.62542 3.363833-.62544 1.156953.00002 2.223763.19347 3.200431.58036.976644.38692 1.818071.93911 2.524284 1.65656.706182.71748 1.258369 1.58896 1.65656 2.61444.398159 1.0255.597247 2.17683.597264 3.45399zm-5.161258.13523c-.000012-.69117-.0695-1.30346-.208479-1.83687-.138997-.5334-.334328-.98228-.585994-1.34666-.251688-.36436-.552198-.64045-.90153-.82828-.349353-.18781-.738137-.28172-1.166354-.28173-.548439.00001-1.017985.1127-1.40864.33807-.39067.2254-.709962.52966-.957876.9128-.247927.38316-.428233.83017-.540918 1.34103-.112697.51087-.169042 1.05555-.169037 1.63402-.000005.75128.08263 1.39174.247921 1.92139.165274.52965.3869.96163.664878 1.29594.277965.33433.597256.57849.957876.7325.360604.15401.736241.23102 1.126912.23101.375628.00001.739996-.0808 1.093105-.24228.353089-.16152.666746-.40944.940972-.74376.274204-.33432.493951-.76066.659243-1.27905.165269-.51837.247909-1.13442.247921-1.84813zM-19.497657 338.68906c-.000016 1.26215-.200982 2.40408-.602898 3.42581-.401948 1.02174-.969159 1.89134-1.701637 2.6088-.732507.71747-1.615254 1.27154-2.648244 1.6622-1.033014.39066-2.180585.58599-3.442717.58599l-6.840357 0 0-16.15992 6.693859 0c1.089339.00002 2.056604.0921 2.901799.27609.845172.18408 1.585177.44515 2.220017.78321.634813.33809 1.168217.74378 1.600215 1.21706.431968.47332.783188 1.00297 1.053663 1.58895.270443.58601.465774 1.21708.585994 1.89321.120188.67616.18029 1.38236.180306 2.1186zm-5.172527.0451c-.000011-.52588-.07889-1.03675-.236651-1.5326-.157779-.49583-.398187-.93532-.721224-1.31848-.323059-.38314-.732503-.68929-1.228335-.91844-.49585-.22912-1.081844-.34369-1.757983-.34371l-1.250872 0 0 8.542 1.363564 0c.593498 0 1.126903-.10705 1.600215-.32117.473293-.21411.875225-.51462 1.205796-.90153.33055-.3869.584105-.85269.760666-1.39737.176538-.54467.264813-1.14757.264824-1.8087z" style="text-align:start;line-height:125%;-inkscape-font-specification:'Segoe WP Black, Ultra-Bold'" font-family="Segoe WP Black" font-weight="800"/></g><rect width="44.527" height="40.714" x="-16.051" y="317.729" fill="#f90" fill-rule="evenodd" stroke="#000" stroke-linecap="round" stroke-linejoin="round" stroke-width=".8" rx="3.599" ry="3.599"/></g><path style="text-indent:0;text-align:start;line-height:normal;text-transform:none;block-progression:tb;marker:none;-inkscape-font-specification:Sans" fill="#fff" d="m 28.368105,989.04943 a 1.0252338,1.0252338 0 0 0 0.295819,2.02893 l 16.69718,0 -0.76087,2.07141 -13.230955,0 a 1.0146089,1.0146089 0 0 0 -0.211203,0 1.0199932,1.0199932 0 0 0 0.211203,2.02894 l 12.512225,0 -0.760702,2.11354 a 1.0146089,1.0146089 0 0 0 -0.25368,-0.0421 l -7.947001,0 a 1.0146089,1.0146089 0 0 0 -0.211372,0 1.0200547,1.0200547 0 0 0 0.211372,2.02909 l 7.48195,0 -4.14248,11.37086 a 1.0146089,1.0146089 0 0 0 0.972242,1.395 l 15.090823,0 a 1.0146089,1.0146089 0 0 0 1.014382,-1.0992 c -0.01854,-0.2336 -0.04214,-0.3568 -0.04214,-0.4226 0,-3.1871 2.561744,-5.749 5.748838,-5.749 3.186756,0 5.748837,2.5619 5.748837,5.749 0,0.061 -0.02528,0.1787 -0.04214,0.4226 a 1.0146089,1.0146089 0 0 0 1.01455,1.0992 l 3.719905,0 a 1.0146089,1.0146089 0 0 0 1.014551,-1.0146 l 0,-7.6933 a 1.0146089,1.0146089 0 0 0 -0.76104,-1.0145 l -7.016898,-1.8599 -6.72108,-10.94828 a 1.0146089,1.0146089 0 0 0 -0.845487,-0.46488 l -10.06055,0 -18.430293,0 a 1.0146089,1.0146089 0 0 0 -0.211203,0 1.0199932,1.0199932 0 0 0 -0.08428,0 z m 19.191163,2.02893 9.046,0 6.636632,10.82134 a 1.0146089,1.0146089 0 0 0 0.591638,0.4651 l 6.636632,1.7331 0,5.9179 -1.77542,0 c -0.276773,-4.0354 -3.54764,-7.2706 -7.651014,-7.2706 -4.106072,0 -7.420258,3.2318 -7.693491,7.2706 l -12.638979,0 6.848002,-18.93744 z m 7.355195,1.77543 -5.283955,0.0843 a 1.0146089,1.0146089 0 0 0 -0.972242,0.76087 l -1.859868,6.93234 a 1.0146089,1.0146089 0 0 0 0.972073,1.2683 l 10.356538,0 a 1.0146089,1.0146089 0 0 0 0.929934,-1.395 l -3.170406,-7.05915 a 1.0146089,1.0146089 0 0 0 -0.972074,-0.5918 z m -0.634115,2.0291 2.282612,4.98795 -7.481951,0 1.31037,-4.90351 3.888969,-0.0843 z m 6.890143,12.04711 c -2.401108,0 -4.353852,1.9952 -4.353852,4.3963 0,2.401 1.952744,4.3539 4.353852,4.3539 2.401108,0 4.353852,-1.9529 4.353852,-4.3539 0,-2.4011 -1.952744,-4.3963 -4.353852,-4.3963 z m 0,2.0291 c 1.30447,0 2.367228,1.0626 2.367228,2.3672 0,1.3045 -1.062758,2.2827 -2.367228,2.2827 -1.30447,0 -2.367228,-0.9782 -2.367228,-2.2827 0,-1.3046 1.062758,-2.3672 2.367228,-2.3672 z" color="#000" enable-background="accumulate" font-family="Sans" font-weight="400" overflow="visible" transform="matrix(.82043 0 0 .82043 -1384.25 -388.302)"/></g></svg>